<?xml version="1.0" encoding="UTF-8"?>
<svg id="Layer_1" data-name="Layer 1" xmlns="http://www.w3.org/2000/svg" viewBox="0 0 80.89 139.41">
  <defs>
    <style>
      .cls-1 {
        fill: #010101;
        stroke-width: 0px;
      }
    </style>
  </defs>
  <path class="cls-1" d="M50.39,18.15c0-2.71.99-4.98,2.98-6.83,1.98-1.84,4.48-2.76,7.48-2.76,2.03,0,3.73.39,5.08,1.16.48-.48.73-1.06.73-1.74,0-.87-.58-1.57-1.74-2.11-1.16-.53-2.71-.8-4.65-.8-3.97,0-7.31,1.26-10.02,3.78-2.71,2.52-4.07,5.66-4.07,9.44,0,2.81.92,5.42,2.76,7.84,1.84,2.42,4.5,4.45,7.99,6.1,7.65,3.68,13.12,7.65,16.41,11.91,3.29,4.26,4.94,9.54,4.94,15.83s-1.57,11.74-4.72,16.63c-3.15,4.89-7.67,8.71-13.58,11.47-5.91,2.76-12.78,4.14-20.62,4.14-9.87,0-18.2-2.13-24.98-6.39-.78.78-1.16,1.6-1.16,2.47,0,1.36,1.14,2.66,3.41,3.92,2.27,1.26,5.45,2.3,9.51,3.12,4.07.82,8.47,1.23,13.21,1.23,3.87-.1,7.5-.34,10.89-.73,3.39-.39,6.49-.63,9.29-.73,6.39,0,11.4,1.6,15.03,4.79,3.63,3.19,5.45,7.65,5.45,13.36,0,5.23-1.67,9.8-5.01,13.72s-8.16,6.97-14.45,9.15c-6.29,2.18-13.7,3.27-22.22,3.27-10.26,0-18.54-1.38-24.83-4.14-6.29-2.76-9.44-6.37-9.44-10.82,0-2.42.87-4.65,2.61-6.68-4.45-4.26-6.68-9.78-6.68-16.56,0-3.87.85-7.45,2.54-10.75,1.69-3.29,4.09-6,7.19-8.13C3.34,76.53.15,69.27.15,60.55c0-5.81,1.55-11.11,4.65-15.9,3.1-4.79,7.5-8.62,13.21-11.47,5.71-2.85,12.2-4.28,19.46-4.28.87,0,1.74.02,2.61.07.87.05,1.74.17,2.61.36-.78-1.35-1.4-2.85-1.89-4.5-.58-2.03-.87-4.11-.87-6.24,0-5.42,2.03-9.87,6.1-13.36,4.07-3.48,9.2-5.23,15.39-5.23,5.81,0,10.5,1.43,14.09,4.28,3.58,2.86,5.37,6.56,5.37,11.11,0,4.07-1.5,7.38-4.5,9.95-3,2.57-6.83,3.85-11.47,3.85-4.16,0-7.62-1.04-10.38-3.12-2.76-2.08-4.14-4.72-4.14-7.91ZM56.78,124.74c-6,2.42-12.54,3.63-19.6,3.63-9.58,0-17.86-2.13-24.83-6.39-.78.58-1.16,1.4-1.16,2.47,0,2.13,2.69,4.04,8.06,5.74,5.37,1.69,11.5,2.54,18.37,2.54,5.32,0,10.02-.53,14.09-1.6,4.07-1.07,6.1-2.52,6.1-4.36,0-.87-.34-1.55-1.02-2.03ZM39.21,85.53c1.74,0,2.61-1.31,2.61-3.92v-42.11c0-2.61-.87-3.92-2.61-3.92s-2.61,1.31-2.61,3.92v42.11c0,2.61.87,3.92,2.61,3.92Z"/>
</svg>