<?xml version="1.0" encoding="utf-8"?>
<!-- Generator: Adobe Illustrator 28.3.0, SVG Export Plug-In . SVG Version: 6.00 Build 0)  -->
<svg version="1.1" id="Layer_1" xmlns="http://www.w3.org/2000/svg" xmlns:xlink="http://www.w3.org/1999/xlink" x="0px" y="0px"
	 viewBox="0 0 518 150" style="enable-background:new 0 0 518 150;" xml:space="preserve">
<style type="text/css">
	.st0{fill-rule:evenodd;clip-rule:evenodd;}
</style>
<g>
	
		<rect x="383.1" y="90.4" transform="matrix(-3.660255e-07 1 -1 -3.660255e-07 494.7887 -292.6813)" class="st0" width="21.3" height="21.3"/>
	<path class="st0" d="M378.4,111.7l0-21.3l-16.6,0c-2.6,0-4.7,2.1-4.7,4.7v16.6L378.4,111.7z"/>
	
		<rect x="383.1" y="64.9" transform="matrix(-3.660254e-07 1 -1 -3.660254e-07 469.3312 -318.1388)" class="st0" width="21.3" height="21.3"/>
	<rect x="383.1" y="48.3" class="st0" width="21.3" height="12.2"/>
</g>
<g>
	<path d="M116.8,79.8c-1.1,1.1-2.3,2-3.6,2.7c-1.3,0.7-3,1.1-5.1,1.1c-1.8,0-3.5-0.3-5-0.9c-1.6-0.6-2.9-1.6-4-3
		c-1.1-1.4-2-3.2-2.7-5.5c-0.6-2.3-1-5.2-1-8.6v-2.7c0-3.3,0.3-6.1,1-8.4c0.7-2.3,1.6-4.2,2.7-5.6c1.2-1.4,2.5-2.5,4.1-3.1
		c1.6-0.6,3.2-1,5-1c2.4,0,4.2,0.4,5.5,1.1c1.3,0.7,2.5,1.8,3.6,3.3l0.8-3.4h10.6v35.4c0,3-0.3,5.6-0.9,7.9
		c-0.6,2.3-1.6,4.3-3.1,5.9c-1.5,1.6-3.4,2.8-5.9,3.6c-2.5,0.8-5.6,1.3-9.4,1.3c-0.6,0-1.4,0-2.3-0.1c-0.9-0.1-1.8-0.1-2.8-0.2
		c-0.9-0.1-1.9-0.2-2.8-0.4c-0.9-0.1-1.7-0.3-2.3-0.4v-9.6c1.1,0.2,2.4,0.4,4.1,0.7c1.6,0.2,3.1,0.4,4.5,0.4c1.9,0,3.5-0.2,4.7-0.6
		c1.2-0.4,2.1-0.9,2.7-1.5c0.6-0.6,1-1.4,1.2-2.4c0.2-0.9,0.3-2,0.3-3.1V79.8z M107.8,65.2c0,3.1,0.4,5.2,1.1,6.5
		c0.7,1.2,1.9,1.9,3.6,1.9c0.9,0,1.7-0.2,2.2-0.6c0.6-0.4,1-0.9,1.3-1.6c0.3-0.6,0.5-1.4,0.6-2.2c0.1-0.8,0.2-1.7,0.2-2.5v-4.8
		c0-0.9,0-1.7-0.1-2.5c-0.1-0.8-0.3-1.6-0.6-2.2c-0.3-0.6-0.7-1.2-1.3-1.6c-0.6-0.4-1.3-0.6-2.2-0.6c-1.7,0-3,0.7-3.7,2.1
		c-0.8,1.4-1.1,3.5-1.1,6.2V65.2z"/>
	<path d="M131.8,45.8h10.9l0.9,3.6c1.2-1.6,2.7-2.6,4.3-3.2c1.6-0.5,3-0.8,4.3-0.8c0.5,0,1.1,0,1.5,0.1c0.5,0.1,0.9,0.1,1.3,0.2
		v10.4c-1-0.2-2.1-0.3-3.1-0.3c-2.4,0-4.4,0.4-5.8,1.3c-1.4,0.9-2.1,2.5-2.1,4.8v12.1c0,5.4-4.4,9.9-9.9,9.9h-2.4V45.8z"/>
	<path d="M167.7,68.7c0.1,2.4,1,4.1,2.8,5.1c1.7,0.9,4.2,1.4,7.4,1.4c1,0,2.2-0.1,3.4-0.2c1.3-0.1,2.4-0.3,3.4-0.6v9.1
		c-0.6,0.2-1.3,0.3-2.2,0.4c-0.9,0.1-1.7,0.2-2.6,0.3c-0.9,0.1-1.8,0.1-2.6,0.2c-0.9,0.1-1.6,0.1-2.2,0.1c-6,0-10.7-1.5-13.9-4.4
		c-3.2-2.9-4.9-7.4-4.9-13.3v-5.6c0-2.7,0.4-5.1,1.3-7.2c0.8-2,2-3.7,3.4-5.1c1.5-1.3,3.2-2.4,5.2-3c2-0.7,4.2-1,6.5-1
		c1.9,0,3.8,0.3,5.6,0.9c1.8,0.6,3.4,1.5,4.7,2.8c1.4,1.3,2.5,3,3.3,5.1c0.8,2.1,1.2,4.6,1.2,7.6v0.5c0,3.9-3.1,7-7,7H167.7z
		 M176.8,61.1c0-2.7-0.4-4.6-1.2-5.5c-0.8-0.9-1.9-1.4-3.3-1.4c-1.4,0-2.5,0.5-3.4,1.4c-0.9,0.9-1.3,2.8-1.3,5.5H176.8z"/>
	<path d="M205.1,100h-0.8c-5.7,0-9.9-5.4-8.4-11l1.5-5.7l-12.5-37.5h13.3l6,23.7l5.7-23.7h12.7L205.1,100z"/>
	<path d="M248.7,72.6c0,1.8-0.3,3.4-0.9,4.9c-0.6,1.5-1.6,2.7-3,3.7c-1.4,1-3.2,1.8-5.5,2.4c-2.2,0.6-5,0.8-8.2,0.8
		c-0.6,0-1.3,0-2.3-0.1c-0.9-0.1-1.9-0.1-2.8-0.2c-1-0.1-1.9-0.2-2.8-0.3c-0.1,0-0.2,0-0.3,0c-1.1-0.1-1.9-1.1-1.9-2.2V77
		c0-1.4,1.2-2.4,2.6-2.2c0.4,0.1,0.9,0.1,1.3,0.2c1.6,0.2,3,0.4,4.2,0.4c2.7,0,4.6-0.2,5.6-0.6c1-0.4,1.5-1.2,1.5-2.4
		c0-0.9-0.4-1.6-1.1-2c-0.7-0.4-1.9-0.9-3.6-1.5l-1.9-0.6c-1.3-0.5-2.5-1-3.6-1.5c-1.1-0.5-2-1.2-2.7-2c-0.8-0.8-1.3-1.8-1.7-3
		c-0.4-1.2-0.6-2.8-0.6-4.7c0-3.4,1.4-6.2,4.1-8.5c2.7-2.2,6.9-3.4,12.4-3.4c0.6,0,1.3,0,2.1,0.1c0.8,0.1,1.7,0.1,2.6,0.2
		c0.9,0.1,1.8,0.2,2.6,0.3c0.1,0,0.2,0,0.2,0c1.1,0.2,1.9,1.1,1.9,2.2v4.5c0,1.4-1.2,2.4-2.6,2.2c-0.3-0.1-0.7-0.1-1-0.2
		c-1.5-0.2-2.8-0.3-4.1-0.3c-1.5,0-2.7,0.1-3.6,0.2c-0.9,0.2-1.6,0.4-2,0.6c-0.5,0.2-0.8,0.5-0.9,0.8c-0.1,0.3-0.2,0.6-0.2,1
		c0,0.6,0.1,1.1,0.3,1.4c0.2,0.3,0.6,0.6,1.1,0.8c0.5,0.2,1.1,0.5,1.9,0.7c0.8,0.2,1.7,0.6,2.8,0.9l2.6,0.9c2.7,0.9,4.6,2.2,5.7,3.9
		C248.2,67.4,248.7,69.7,248.7,72.6z"/>
	<path d="M254.2,55.5H249v-9.7h5.4V35.7h11.9v10.1h8.4v9.7h-8.3v13.3c0,2.1,0.3,3.6,0.9,4.5c0.6,0.9,1.8,1.3,3.7,1.3
		c0.8,0,1.5,0,2.1,0c0.6,0,1.2-0.1,1.8-0.2v9.4c-0.8,0.2-1.9,0.4-3.4,0.5c-1.5,0.1-2.9,0.2-4.1,0.2c-2.4,0-4.5-0.3-6.1-0.9
		c-1.7-0.6-3-1.5-4.1-2.7c-1.1-1.2-1.8-2.8-2.3-4.8c-0.5-2-0.7-4.3-0.7-7V55.5z"/>
	<path d="M293.9,84.9c-2.5,0-4.8-0.3-6.9-1c-2.1-0.6-3.9-1.7-5.3-3.2c-1.5-1.5-2.6-3.3-3.4-5.7c-0.8-2.3-1.2-5.1-1.2-8.4v-3.8
		c0-3.3,0.4-6.1,1.3-8.4c0.8-2.3,2-4.2,3.5-5.6c1.5-1.5,3.3-2.5,5.3-3.2c2.1-0.6,4.4-1,6.8-1c2.5,0,4.9,0.3,7,1
		c2.1,0.6,3.9,1.7,5.4,3.2c1.5,1.5,2.6,3.3,3.4,5.6c0.8,2.3,1.2,5.1,1.2,8.4v3.8c0,3.3-0.4,6.1-1.2,8.4c-0.8,2.3-1.9,4.2-3.4,5.7
		c-1.5,1.5-3.2,2.5-5.3,3.2C298.8,84.6,296.5,84.9,293.9,84.9z M294,54.4c-2.1,0-3.4,0.8-3.9,2.4c-0.5,1.6-0.8,4-0.8,7v2.1
		c0,3.1,0.2,5.4,0.7,7c0.5,1.6,1.7,2.4,3.8,2.4c2,0,3.3-0.8,3.8-2.4c0.5-1.6,0.8-4,0.8-7v-2.1c0-1.5,0-2.9-0.1-4
		c-0.1-1.2-0.3-2.2-0.5-3c-0.3-0.8-0.7-1.4-1.3-1.8C295.9,54.6,295.1,54.4,294,54.4z"/>
	<path d="M313.2,45.8h10.9l0.8,3.4c0.6-0.6,1.2-1.2,1.8-1.7c0.6-0.5,1.2-1,1.9-1.4s1.5-0.7,2.3-0.9c0.9-0.2,1.9-0.3,3.1-0.3
		c1.6,0,3,0.2,4.3,0.7c1.3,0.5,2.5,1.2,3.4,2.2c1,1,1.7,2.3,2.3,3.9c0.6,1.6,0.8,3.5,0.8,5.8v26.5h-4.6c-4.2,0-7.7-3.4-7.7-7.7V61.3
		c0-1.9-0.2-3.3-0.7-4.1c-0.5-0.9-1.4-1.3-2.7-1.3c-0.9,0-1.6,0.2-2.1,0.5c-0.5,0.4-0.9,0.8-1.2,1.5c-0.3,0.6-0.5,1.3-0.6,2.1
		c-0.1,0.8-0.1,1.5-0.1,2.3v21.5h-4.6c-4.2,0-7.7-3.4-7.7-7.7V45.8z"/>
	<path d="M358.7,68.7c0.1,2.4,1,4.1,2.8,5.1c1.7,0.9,4.2,1.4,7.4,1.4c1,0,2.2-0.1,3.4-0.2c1.3-0.1,2.4-0.3,3.4-0.6v9.1
		c-0.6,0.2-1.3,0.3-2.2,0.4c-0.9,0.1-1.7,0.2-2.6,0.3c-0.9,0.1-1.8,0.1-2.6,0.2c-0.9,0.1-1.6,0.1-2.2,0.1c-6,0-10.7-1.5-13.9-4.4
		c-3.2-2.9-4.9-7.4-4.9-13.3v-5.6c0-2.7,0.4-5.1,1.3-7.2c0.8-2,2-3.7,3.4-5.1c1.5-1.3,3.2-2.4,5.2-3c2-0.7,4.2-1,6.5-1
		c1.9,0,3.8,0.3,5.6,0.9c1.8,0.6,3.4,1.5,4.7,2.8c1.4,1.3,2.5,3,3.3,5.1c0.8,2.1,1.2,4.6,1.2,7.6v0.3c0,4-3.2,7.2-7.2,7.2H358.7z
		 M367.8,61.1c0-2.7-0.4-4.6-1.2-5.5c-0.8-0.9-1.9-1.4-3.3-1.4c-1.4,0-2.5,0.5-3.4,1.4c-0.9,0.9-1.3,2.8-1.3,5.5H367.8z"/>
</g>
</svg>
